<svg width="21" height="14" viewBox="0 0 21 14" fill="none" xmlns="http://www.w3.org/2000/svg">
<path d="M1.92538 9.17122C2.81259 4.74693 6.52144 1.60332 10.6934 1.60332C14.8641 1.60332 18.5729 4.74693 19.4614 9.17122C19.4966 9.34678 19.5975 9.50063 19.7419 9.59893C19.8864 9.69723 20.0625 9.73192 20.2315 9.69538C20.4006 9.65883 20.5488 9.55404 20.6434 9.40406C20.7381 9.25408 20.7715 9.07119 20.7363 8.89563C19.7255 3.86342 15.4976 0.252396 10.6934 0.252396C5.8892 0.252396 1.6613 3.86342 0.650508 8.89563C0.615316 9.07119 0.648724 9.25408 0.743382 9.40406C0.83804 9.55404 0.986195 9.65883 1.15525 9.69538C1.32431 9.73192 1.50043 9.69723 1.64485 9.59893C1.78928 9.50063 1.89019 9.34678 1.92538 9.17122ZM10.6804 4.30518C11.888 4.30518 13.0461 4.80333 13.8999 5.69005C14.7538 6.57677 15.2335 7.77941 15.2335 9.03342C15.2335 10.2874 14.7538 11.4901 13.8999 12.3768C13.0461 13.2635 11.888 13.7617 10.6804 13.7617C9.47283 13.7617 8.31472 13.2635 7.46084 12.3768C6.60697 11.4901 6.12726 10.2874 6.12726 9.03342C6.12726 7.77941 6.60697 6.57677 7.46084 5.69005C8.31472 4.80333 9.47283 4.30518 10.6804 4.30518Z" fill="#949BA5"/>
</svg>
